# 3ds Max Wavefront OBJ Exporter v0.97b - (c)2007 guruware
# File Created: 14.12.2012 23:43:34

mtllib ???\?????\ice.mtl

#
# object Cylinder001
#

v  97.3975 0.0000 -1.2085
v  97.3975 33.9819 -1.2085
v  89.3773 33.9819 19.1161
v  89.3773 0.0000 19.1161
v  73.2689 0.0000 -51.3458
v  73.2689 33.9819 -51.3458
v  83.5419 33.9819 -46.8441
v  83.5419 0.0000 -46.8441
v  33.5354 0.0000 -90.1098
v  33.5354 33.9819 -90.1098
v  47.8261 33.9819 -84.5743
v  47.8261 0.0000 -84.5743
v  18.0270 0.0000 -93.9462
v  -26.6729 0.0000 -86.4456
v  -26.6729 33.9819 -86.4456
v  18.0270 33.9819 -93.9462
v  -63.5703 0.0000 -58.2326
v  -63.5703 33.9819 -58.2326
v  -75.2084 0.0000 -34.2996
v  -75.2084 33.9819 -34.2996
v  -70.0779 33.9819 -42.2032
v  -70.0779 0.0000 -42.2032
v  -79.1866 0.0000 3.7036
v  -79.1866 33.9819 3.7036
v  -71.0456 33.9819 -3.5840
v  -71.0456 0.0000 -3.5840
v  -78.7514 0.0000 18.2786
v  -61.4910 0.0000 45.5340
v  -61.5153 33.9819 45.5342
v  -78.7514 33.9819 18.2786
v  -46.6628 0.0000 57.4146
v  -46.6850 33.9819 57.3678
v  -51.5469 33.9819 47.4255
v  -51.5237 0.0000 47.4488
v  -5.3392 0.0000 73.8422
v  -5.3476 33.9819 73.8141
v  -16.8194 33.9819 71.7347
v  -16.8068 0.0000 71.7768
v  53.7155 0.0000 51.9622
v  53.7155 33.9819 51.9622
v  54.4352 33.9819 58.7367
v  54.4352 0.0000 58.7367
v  72.6719 0.0000 40.8033
v  72.6719 33.9819 40.8033
v  60.7072 33.9819 43.4970
v  60.6987 0.0000 43.4735
v  80.0044 0.0000 33.2774
v  80.0044 33.9819 33.2774
v  0.9337 0.0000 -6.9807
v  97.4926 0.0000 -19.7301
v  -39.2698 33.9819 63.2847
v  -27.7980 33.9819 65.3641
v  4.4258 33.9819 -6.6685
v  53.6191 33.9819 45.6577
v  97.4926 33.9819 -19.7301
v  91.2966 33.9819 -36.0695
v  -79.8393 33.9819 -18.1591
v  -79.6217 33.9819 -10.8715
v  -64.5144 33.9819 -47.3587
v  62.0617 0.0000 -76.3460
v  73.5881 0.0000 -60.5809
v  18.0893 0.0000 73.6818
v  6.6217 0.0000 69.7827
v  53.6191 0.0000 45.6577
v  -39.2487 0.0000 63.3548
v  -81.0282 0.0000 11.9967
v  -79.8393 0.0000 -18.1591
v  -78.4090 0.0000 -26.2660
v  32.0079 33.9819 70.1145
v  32.0079 0.0000 70.1145
v  44.1232 0.0000 65.1328
v  44.1232 33.9819 65.1328
v  18.0893 33.9819 73.6818
v  62.0617 33.9819 -76.3460
v  73.5881 33.9819 -60.5809
v  91.2966 0.0000 -36.0695
v  -78.4090 33.9819 -26.2660
v  -64.5144 0.0000 -47.3587
v  -81.0282 33.9819 11.9967
v  -79.6217 0.0000 -10.8715
v  7.3321 33.9819 69.6133
v  -27.7811 0.0000 65.4202
# 82 vertices

vn 0.9819 0.0000 0.1893
vn 0.8869 0.0000 0.4620
vn 0.8464 -0.0000 -0.5326
vn 0.6288 -0.0000 -0.7776
vn 0.3013 -0.0000 -0.9535
vn 0.4321 -0.0000 -0.9018
vn 0.4321 0.0000 -0.9018
vn 0.0381 -0.0000 -0.9993
vn -0.3982 0.0000 -0.9173
vn 0.0381 0.0000 -0.9993
vn -0.8765 0.0000 -0.4814
vn -0.8882 -0.0000 -0.4595
vn -0.7651 -0.0000 -0.6439
vn -0.8630 0.0000 -0.5052
vn -0.9999 0.0000 0.0129
vn -0.8978 -0.0001 0.4404
vn -0.5629 -0.0003 0.8265
vn -0.5625 0.0001 0.8268
vn -0.8979 0.0000 0.4402
vn -0.7808 0.0002 0.6247
vn -0.7802 0.0005 0.6255
vn -0.6065 0.0002 0.7951
vn -0.6079 -0.0002 0.7940
vn 0.0744 0.0008 0.9972
vn 0.0709 -0.0002 0.9975
vn -0.3453 0.0007 0.9385
vn -0.3444 0.0009 0.9388
vn 0.9982 0.0000 -0.0605
vn 0.8983 0.0000 0.4394
vn 0.4874 -0.0002 0.8732
vn 0.4881 0.0000 0.8728
vn 0.2556 -0.0003 0.9668
vn 0.2563 -0.0003 0.9666
vn 0.7785 0.0000 0.6276
vn 0.0000 -1.0000 -0.0000
vn 0.0000 1.0000 -0.0000
vn 0.8091 0.0000 0.5876
vn 0.8082 -0.0003 0.5888
vn 0.3150 0.0000 0.9491
vn 0.4552 0.0000 0.8904
vn 0.6682 0.0000 -0.7440
vn 0.9558 0.0000 -0.2940
vn 0.9841 0.0000 -0.1777
vn 0.8808 0.0000 -0.4734
vn 0.8808 -0.0000 -0.4734
vn -0.9974 -0.0000 -0.0723
vn -0.9974 0.0000 -0.0723
vn -0.9619 -0.0000 -0.2734
vn -0.8983 0.0000 -0.4395
vn -0.8983 -0.0000 -0.4395
vn -0.9979 0.0000 0.0646
vn -0.9013 0.0000 0.4333
vn -0.0412 0.0039 0.9991
vn -0.0553 0.0000 0.9985
vn -0.0213 0.0001 0.9998
vn 0.0024 0.0048 1.0000
vn -0.4137 0.0011 0.9104
vn -0.3446 0.0012 0.9388
vn -0.3451 0.0010 0.9385
# 59 vertex normals

vt 0.5265 0.0317 0.5022
vt 0.5265 0.5000 0.5022
vt 0.5071 0.4999 0.4867
vt 0.5071 0.0316 0.4866
vt 0.5788 0.0320 0.4396
vt 0.5788 0.5003 0.4396
vt 0.5702 0.5003 0.4754
vt 0.5702 0.0320 0.4754
vt 0.6301 0.0322 0.4977
vt 0.6301 0.5005 0.4977
vt 0.6171 0.5005 0.4964
vt 0.6171 0.0322 0.4964
vt 0.6435 0.0323 0.5030
vt 0.6820 0.0322 0.4955
vt 0.6820 0.5005 0.4954
vt 0.6435 0.5006 0.5029
vt 0.7227 0.0321 0.4942
vt 0.7227 0.5004 0.4941
vt 0.7466 0.0319 0.4892
vt 0.7466 0.5002 0.4892
vt 0.7383 0.5003 0.4787
vt 0.7383 0.0320 0.4787
vt 0.3122 0.0317 0.4965
vt 0.3122 0.5000 0.4965
vt 0.3062 0.5000 0.4458
vt 0.3062 0.0318 0.4458
vt 0.3247 0.0316 0.5157
vt 0.3523 0.0315 0.5121
vt 0.3523 0.4998 0.5123
vt 0.3247 0.4999 0.5157
vt 0.3683 0.0314 0.5062
vt 0.3683 0.4997 0.5061
vt 0.3593 0.4998 0.4791
vt 0.3593 0.0315 0.4790
vt 0.4058 0.0313 0.5057
vt 0.4058 0.4996 0.5057
vt 0.3962 0.4996 0.5073
vt 0.3962 0.0313 0.5075
vt 0.4622 0.0314 0.4489
vt 0.4621 0.4997 0.4490
vt 0.4591 0.4997 0.4849
vt 0.4591 0.0314 0.4848
vt 0.4822 0.0315 0.4713
vt 0.4822 0.4998 0.4714
vt 0.4727 0.4998 0.4339
vt 0.4727 0.0315 0.4338
vt 0.4918 0.0315 0.4778
vt 0.4917 0.4998 0.4779
vt 0.7334 0.7643 0.0000
vt 0.9761 0.7302 0.0000
vt 0.9758 0.7798 0.0000
vt 0.1421 0.5555 0.0000
vt 0.1710 0.5499 0.0000
vt 0.2520 0.7426 0.0000
vt 0.0862 0.6029 0.0000
vt 0.1113 0.5979 0.0000
vt 0.3756 0.6026 0.0000
vt 0.3934 0.6084 0.0000
vt 0.3758 0.5857 0.0000
vt 0.4655 0.6736 0.0000
vt 0.4856 0.7280 0.0000
vt 0.4419 0.6357 0.0000
vt 0.3610 0.9509 0.0000
vt 0.3251 0.9657 0.0000
vt 0.4859 0.7775 0.0000
vt 0.4703 0.8212 0.0000
vt 0.1738 0.9559 0.0000
vt 0.0810 0.8805 0.0000
vt 0.2861 0.9760 0.0000
vt 0.0402 0.7733 0.0000
vt 0.0407 0.7538 0.0000
vt 0.0787 0.8514 0.0000
vt 0.0429 0.6758 0.0000
vt 0.8870 0.5788 0.0000
vt 0.9160 0.6210 0.0000
vt 0.9321 0.8720 0.0000
vt 0.9137 0.8921 0.0000
vt 0.9557 0.8341 0.0000
vt 0.7765 0.9800 0.0000
vt 0.7477 0.9696 0.0000
vt 0.8658 0.9051 0.0000
vt 0.8660 0.9219 0.0000
vt 0.5712 0.6273 0.0000
vt 0.6640 0.5518 0.0000
vt 0.6324 0.9524 0.0000
vt 0.6137 0.9365 0.0000
vt 0.5765 0.9048 0.0000
vt 0.5331 0.8319 0.0000
vt 0.5274 0.8151 0.0000
vt 0.5303 0.7344 0.0000
vt 0.5339 0.7127 0.0000
vt 0.7763 0.5318 0.0000
vt 0.8153 0.5420 0.0000
vt 0.4659 0.0315 0.4182
vt 0.4659 0.4998 0.4182
vt 0.4374 0.4996 0.4961
vt 0.4374 0.0313 0.4960
vt 0.4486 0.0314 0.4911
vt 0.4486 0.4997 0.4912
vt 0.4235 0.6156 0.0000
vt 0.2863 0.5277 0.0000
vt 0.3213 0.5372 0.0000
vt 0.3776 0.5676 0.0000
vt 0.8836 0.8992 0.0000
vt 0.8678 0.9401 0.0000
vt 0.8419 0.9572 0.0000
vt 0.6030 0.0322 0.4970
vt 0.6030 0.5005 0.4970
vt 0.5858 0.5004 0.4740
vt 0.5858 0.0321 0.4740
vt 0.5430 0.5001 0.5033
vt 0.5430 0.0318 0.5033
vt 0.5584 0.0319 0.4904
vt 0.5584 0.5002 0.4904
vt 0.4508 0.8500 0.0000
vt 0.4250 0.8621 0.0000
vt 0.4258 0.8868 0.0000
vt 0.3968 0.9289 0.0000
vt 0.9605 0.6865 0.0000
vt 0.9410 0.6577 0.0000
vt 0.9152 0.6457 0.0000
vt 0.8512 0.5568 0.0000
vt 0.7617 0.0318 0.4957
vt 0.7617 0.5001 0.4957
vt 0.7544 0.5002 0.4948
vt 0.7543 0.0319 0.4949
vt 0.7317 0.0320 0.4642
vt 0.7317 0.5003 0.4642
vt 0.3190 0.5000 0.5170
vt 0.3190 0.0317 0.5170
vt 0.7683 0.0318 0.4921
vt 0.7683 0.5001 0.4921
vt 0.7755 0.0318 0.4458
vt 0.7755 0.5000 0.4458
vt 0.0647 0.8376 0.0000
vt 0.0372 0.6926 0.0000
vt 0.0418 0.7148 0.0000
vt 0.0623 0.7343 0.0000
vt 0.0438 0.7950 0.0000
vt 0.0518 0.8165 0.0000
vt 0.5689 0.6563 0.0000
vt 0.5549 0.6701 0.0000
vt 0.5420 0.6913 0.0000
vt 0.5309 0.7539 0.0000
vt 0.5525 0.7734 0.0000
vt 0.5320 0.7929 0.0000
vt 0.4253 0.0313 0.5021
vt 0.4253 0.4996 0.5022
vt 0.4163 0.4996 0.4749
vt 0.4157 0.0313 0.4759
vt 0.3762 0.4997 0.5118
vt 0.3763 0.0314 0.5120
vt 0.3856 0.0314 0.4930
vt 0.3856 0.4997 0.4928
vt 0.1235 0.5713 0.0000
vt 0.1986 0.5329 0.0000
vt 0.2274 0.5273 0.0000
vt 0.2593 0.5385 0.0000
vt 0.6015 0.9099 0.0000
vt 0.6612 0.9579 0.0000
vt 0.6888 0.9749 0.0000
vt 0.7176 0.9805 0.0000
vt 0.3517 0.5505 0.0000
vt 0.8115 0.9705 0.0000
# 164 texture coords

g Cylinder001
usemtl 02___Default
s 8
f 1/1/1 2/2/1 3/3/2 4/4/2 
f 5/5/3 6/6/3 7/7/4 8/8/4 
f 9/9/5 10/10/5 11/11/6 12/12/7 
f 13/13/8 14/14/9 15/15/9 16/16/10 
f 14/14/9 17/17/11 18/18/11 15/15/9 
f 19/19/12 20/20/12 21/21/13 22/22/13 
f 23/23/14 24/24/14 25/25/15 26/26/15 
f 27/27/16 28/28/17 29/29/18 30/30/19 
f 31/31/20 32/32/21 33/33/22 34/34/23 
f 35/35/24 36/36/25 37/37/26 38/38/27 
f 39/39/28 40/40/28 41/41/29 42/42/29 
f 43/43/30 44/44/31 45/45/32 46/46/33 
f 47/47/34 4/4/2 3/3/2 48/48/34 
s 1
f 49/49/35 50/50/35 1/51/35 
f 51/52/36 52/53/36 53/54/36 
f 53/54/36 29/55/36 33/56/36 
f 54/57/36 45/58/36 53/54/36 
f 53/54/36 40/59/36 54/57/36 
f 3/60/36 2/61/36 53/54/36 
f 53/54/36 48/62/36 3/60/36 
f 11/63/36 10/64/36 53/54/36 
f 53/54/36 55/65/36 56/66/36 
f 15/67/36 18/68/36 53/54/36 
f 53/54/36 16/69/36 15/67/36 
f 57/70/36 58/71/36 53/54/36 
f 53/54/36 18/68/36 59/72/36 
f 30/73/36 29/55/36 53/54/36 
f 49/49/35 60/74/35 61/75/35 
f 47/76/35 43/77/35 49/49/35 
f 49/49/35 4/78/35 47/76/35 
f 62/79/35 63/80/35 49/49/35 
f 49/49/35 64/81/35 39/82/35 
f 17/83/35 14/84/35 49/49/35 
f 49/49/35 65/85/35 31/86/35 
f 49/49/35 28/87/35 27/88/35 
f 49/49/35 27/88/35 66/89/35 
f 49/49/35 67/90/35 68/91/35 
f 13/92/35 9/93/35 49/49/35 
f 49/49/35 14/84/35 13/92/35 
s 8
f 64/94/37 54/95/38 40/40/28 39/39/28 
f 69/96/39 70/97/39 71/98/40 72/99/40 
f 47/47/34 48/48/34 44/44/31 43/43/30 
f 54/95/38 64/94/37 46/46/33 45/45/32 
s 1
f 44/100/36 48/62/36 53/54/36 
f 45/58/36 44/100/36 53/54/36 
f 53/54/36 73/101/36 69/102/36 
f 41/103/36 40/59/36 53/54/36 
f 43/77/35 46/104/35 49/49/35 
f 42/105/35 71/106/35 49/49/35 
f 49/49/35 39/82/35 42/105/35 
f 46/104/35 64/81/35 49/49/35 
s 8
f 60/107/41 74/108/41 75/109/42 61/110/42 
f 61/110/42 75/109/42 6/6/3 5/5/3 
f 55/111/43 50/112/43 76/113/44 56/114/45 
f 56/114/45 76/113/44 8/8/4 7/7/4 
s 1
f 56/66/36 7/115/36 53/54/36 
f 6/116/36 75/117/36 53/54/36 
f 53/54/36 7/115/36 6/116/36 
f 75/117/36 74/118/36 53/54/36 
f 76/119/35 50/50/35 49/49/35 
f 8/120/35 76/119/35 49/49/35 
f 5/121/35 8/120/35 49/49/35 
f 61/75/35 5/121/35 49/49/35 
s 8
f 50/112/43 55/111/43 2/2/1 1/1/1 
s 1
f 2/61/36 55/65/36 53/54/36 
f 1/51/35 4/78/35 49/49/35 
s 8
f 13/13/8 16/16/10 10/10/5 9/9/5 
f 74/108/41 60/107/41 12/12/7 11/11/6 
s 1
f 10/64/36 16/69/36 53/54/36 
f 53/54/36 74/118/36 11/63/36 
f 9/93/35 12/122/35 49/49/35 
f 12/122/35 60/74/35 49/49/35 
s 8
f 67/123/46 57/124/47 77/125/48 68/126/48 
f 68/126/48 77/125/48 20/20/12 19/19/12 
f 18/18/11 17/17/11 78/127/49 59/128/50 
f 59/128/50 78/127/49 22/22/13 21/21/13 
f 27/27/16 30/30/19 79/129/51 66/130/51 
f 66/130/51 79/129/51 24/24/14 23/23/14 
f 57/124/47 67/123/46 80/131/52 58/132/52 
f 58/132/52 80/131/52 26/133/15 25/134/15 
s 1
f 59/72/36 21/135/36 53/54/36 
f 79/136/36 30/73/36 53/54/36 
f 24/137/36 79/136/36 53/54/36 
f 25/138/36 24/137/36 53/54/36 
f 58/71/36 25/138/36 53/54/36 
f 77/139/36 57/70/36 53/54/36 
f 20/140/36 77/139/36 53/54/36 
f 21/135/36 20/140/36 53/54/36 
f 78/141/35 17/83/35 49/49/35 
f 22/142/35 78/141/35 49/49/35 
f 19/143/35 22/142/35 49/49/35 
f 68/91/35 19/143/35 49/49/35 
f 80/144/35 67/90/35 49/49/35 
f 26/145/35 80/144/35 49/49/35 
f 23/146/35 26/145/35 49/49/35 
f 66/89/35 23/146/35 49/49/35 
s 8
f 62/147/53 73/148/54 81/149/55 63/150/56 
f 63/150/56 81/149/55 36/36/25 35/35/24 
f 51/151/57 65/152/57 82/153/58 52/154/59 
f 52/154/59 82/153/58 38/38/27 37/37/26 
f 65/152/57 51/151/57 32/32/21 31/31/20 
f 29/29/18 28/28/17 34/34/23 33/33/22 
s 1
f 32/155/36 51/52/36 53/54/36 
f 53/54/36 33/56/36 32/155/36 
f 52/53/36 37/156/36 53/54/36 
f 37/156/36 36/157/36 53/54/36 
f 36/157/36 81/158/36 53/54/36 
f 81/158/36 73/101/36 53/54/36 
f 31/86/35 34/159/35 49/49/35 
f 34/159/35 28/87/35 49/49/35 
f 82/160/35 65/85/35 49/49/35 
f 38/161/35 82/160/35 49/49/35 
f 35/162/35 38/161/35 49/49/35 
f 63/80/35 35/162/35 49/49/35 
s 8
f 73/148/54 62/147/53 70/97/39 69/96/39 
f 42/42/29 41/41/29 72/99/40 71/98/40 
s 1
f 72/163/36 41/103/36 53/54/36 
f 69/102/36 72/163/36 53/54/36 
f 71/106/35 70/164/35 49/49/35 
f 70/164/35 62/79/35 49/49/35 
# 40 polygons - 80 triangles

